<svg width="308" height="233" viewBox="0 0 308 233" fill="none" xmlns="http://www.w3.org/2000/svg">
<path d="M60.9453 27.3419C83.9059 27.3173 106.866 27.2928 130.523 27.2676C137.768 27.2567 145.014 27.2459 152.479 27.2348C161.338 27.2294 161.338 27.2294 165.487 27.2284C168.38 27.2273 171.273 27.2229 174.167 27.2164C177.508 27.2088 180.85 27.2054 184.191 27.207C185.898 27.2077 187.605 27.2066 189.312 27.2001C197.223 27.1715 204.969 27.18 212.591 29.6203C212.916 29.7218 213.241 29.8233 213.576 29.9278C225.003 33.6008 234.514 40.7901 240.219 51.5136C241.306 53.7017 242.19 55.9426 242.99 58.25C243.092 58.5394 243.195 58.8288 243.301 59.1269C247.294 70.9165 245.571 85.137 240.334 96.1438C238.521 99.8208 236.265 102.798 233.492 105.801C233.232 106.093 232.972 106.385 232.705 106.686C228.952 110.709 224.03 113.497 219.245 116.104C219.671 116.396 220.097 116.689 220.536 116.991C231.163 124.356 239.85 132.802 243.781 145.427C243.907 145.828 243.907 145.828 244.035 146.237C246.069 153.039 246.256 161.119 244.573 168.014C244.451 168.521 244.33 169.028 244.205 169.551C240.87 182.466 232.041 194.707 220.605 201.621C213.017 206.061 205.123 208.17 196.34 208.131C195.755 208.131 195.17 208.132 194.585 208.133C192.985 208.135 191.384 208.132 189.784 208.128C188.029 208.124 186.274 208.125 184.519 208.126C181.116 208.126 177.712 208.123 174.309 208.118C170.371 208.112 166.432 208.111 162.494 208.111C152.101 208.107 141.708 208.095 131.314 208.085C108.093 208.069 84.8708 208.053 60.9453 208.036C60.9453 148.407 60.9453 88.7778 60.9453 27.3419Z" fill="#148A09"/>
<path d="M88.6477 52.7024C95.7979 52.6901 95.7979 52.6901 103.092 52.6776C105.33 52.6722 105.33 52.6722 107.613 52.6667C109.469 52.6649 109.469 52.6649 110.344 52.6646C110.941 52.664 111.538 52.6626 112.135 52.6605C121.036 52.6317 129.511 52.6481 136.434 59.1663C141.834 64.9624 143.576 71.539 143.375 79.3229C143.261 81.7724 142.821 84.0497 142.074 86.3843C141.973 86.7184 141.872 87.0525 141.768 87.3967C139.678 93.4046 135.065 98.2642 129.41 101.046C125.796 102.494 122.398 103.091 118.524 103.072C118.03 103.072 118.03 103.072 117.525 103.072C116.466 103.072 115.407 103.069 114.348 103.066C113.691 103.065 113.034 103.065 112.376 103.065C109.95 103.063 107.523 103.057 105.096 103.052C99.668 103.044 94.2401 103.036 88.6477 103.027C88.6477 86.42 88.6477 69.8128 88.6477 52.7024Z" fill="white"/>
<path d="M88.6477 130.765C94.2797 130.733 99.9117 130.7 105.714 130.666C107.482 130.652 109.25 130.637 111.071 130.623C113.257 130.615 113.257 130.615 114.285 130.614C114.992 130.612 115.699 130.606 116.406 130.598C124.152 130.513 130.606 131.829 136.422 137.367C141.718 142.806 143.43 148.945 143.435 156.381C143.27 162.736 140.81 168.471 136.459 173.091C131.392 177.888 125.13 179.979 118.21 179.946C117.721 179.946 117.721 179.946 117.222 179.947C116.174 179.946 115.126 179.943 114.078 179.94C113.428 179.94 112.778 179.939 112.128 179.939C109.726 179.937 107.325 179.931 104.923 179.926C99.552 179.918 94.1812 179.91 88.6477 179.901C88.6477 163.686 88.6477 147.472 88.6477 130.765Z" fill="white"/>
<path d="M159.882 52.7024C164.437 52.684 168.993 52.6699 173.548 52.6613C175.663 52.6572 177.779 52.6516 179.894 52.6426C181.939 52.6339 183.984 52.6292 186.03 52.6272C186.806 52.6258 187.583 52.6229 188.36 52.6186C196.7 52.5742 204.502 53.3195 210.983 59.2407C216.097 64.6412 217.964 71.7837 217.785 79.0366C217.487 84.9626 214.603 90.4754 210.538 94.7058C202.129 102.154 192.679 103.572 181.845 103.501C181.171 103.499 180.498 103.498 179.824 103.497C178.076 103.494 176.328 103.487 174.58 103.478C172.786 103.47 170.992 103.466 169.199 103.462C165.697 103.454 162.196 103.44 158.695 103.423C159.067 102.925 159.439 102.427 159.811 101.928C160.018 101.651 160.226 101.373 160.439 101.087C161.018 100.322 161.61 99.5683 162.207 98.817C166.475 93.0859 169.348 86.4214 169.776 79.2517C169.815 78.6265 169.815 78.6265 169.855 77.9886C170.153 68.9322 165.983 61.3693 160.55 54.4314C159.882 53.4949 159.882 53.4949 159.882 52.7024Z" fill="white"/>
<path d="M161.07 130.765C163.977 130.756 166.885 130.749 169.793 130.745C171.144 130.743 172.495 130.74 173.846 130.735C190.484 130.683 190.484 130.683 196.267 131.657C196.573 131.708 196.88 131.758 197.196 131.81C202.934 132.837 207.984 135.331 211.725 139.879C213.62 142.632 214.912 145.352 215.683 148.597C215.804 148.987 215.804 148.987 215.927 149.385C217.242 154.028 216.849 159.544 215.287 164.051C215.152 164.445 215.018 164.839 214.879 165.244C212.217 172.277 207.303 176.469 200.686 179.577C198.171 180.556 196.033 180.806 193.353 180.784C192.99 180.784 192.627 180.784 192.253 180.784C191.06 180.784 189.867 180.778 188.675 180.771C187.845 180.77 187.014 180.769 186.184 180.768C184.006 180.765 181.827 180.757 179.648 180.748C177.422 180.74 175.196 180.737 172.971 180.733C168.608 180.724 164.245 180.711 159.882 180.694C160.497 179.414 161.226 178.268 162.03 177.098C163.945 174.308 165.618 171.505 167.006 168.41C167.155 168.082 167.305 167.754 167.459 167.416C170.853 159.499 170.647 150.997 167.596 143.043C166.245 139.704 164.527 136.632 162.62 133.582C162.047 132.652 161.546 131.745 161.07 130.765Z" fill="white"/>
</svg>
