<svg width="32" height="32" viewBox="0 0 32 32" fill="none" xmlns="http://www.w3.org/2000/svg">
<rect width="32" height="32" rx="16" fill="#148A09"/>
<path d="M14.54 17.22L14.012 10.5V5.7H17.132V10.5L16.58 17.22H14.54ZM15.572 19.188C16.068 19.188 16.492 19.364 16.844 19.716C17.196 20.068 17.372 20.492 17.372 20.988C17.372 21.484 17.196 21.908 16.844 22.26C16.492 22.612 16.068 22.788 15.572 22.788C15.076 22.788 14.652 22.612 14.3 22.26C13.948 21.908 13.772 21.484 13.772 20.988C13.772 20.492 13.94 20.068 14.276 19.716C14.628 19.364 15.06 19.188 15.572 19.188Z" fill="white"/>
</svg>
