<svg width="20" height="20" viewBox="0 0 20 20" fill="none" xmlns="http://www.w3.org/2000/svg">
<path d="M15.1583 14.7917H6.28333C5.45833 14.7917 4.66667 14.4417 4.10833 13.8333C3.55 13.225 3.26667 12.4083 3.33334 11.5833L4.02501 3.28333C4.05001 3.025 3.95833 2.775 3.78333 2.58334C3.60833 2.39167 3.36667 2.29166 3.10834 2.29166H1.66667C1.32501 2.29166 1.04167 2.00833 1.04167 1.66666C1.04167 1.325 1.32501 1.04166 1.66667 1.04166H3.11668C3.72501 1.04166 4.3 1.29999 4.70833 1.74166C4.93333 1.99166 5.1 2.28333 5.19167 2.60833H15.6C16.4417 2.60833 17.2167 2.94166 17.7833 3.54166C18.3417 4.15 18.625 4.94167 18.5583 5.78333L18.1083 12.0333C18.0167 13.5583 16.6833 14.7917 15.1583 14.7917ZM5.23334 3.84999L4.58334 11.6833C4.54167 12.1667 4.7 12.625 5.025 12.9833C5.35 13.3417 5.8 13.5333 6.28333 13.5333H15.1583C16.025 13.5333 16.8083 12.8 16.875 11.9333L17.325 5.68334C17.3583 5.19167 17.2 4.72501 16.875 4.38334C16.55 4.03334 16.1 3.84165 15.6083 3.84165H5.23334V3.84999Z" fill="#148A09"/>
<path d="M13.5417 18.9583C12.625 18.9583 11.875 18.2083 11.875 17.2917C11.875 16.375 12.625 15.625 13.5417 15.625C14.4583 15.625 15.2083 16.375 15.2083 17.2917C15.2083 18.2083 14.4583 18.9583 13.5417 18.9583ZM13.5417 16.875C13.3083 16.875 13.125 17.0583 13.125 17.2917C13.125 17.525 13.3083 17.7083 13.5417 17.7083C13.775 17.7083 13.9583 17.525 13.9583 17.2917C13.9583 17.0583 13.775 16.875 13.5417 16.875Z" fill="#148A09"/>
<path d="M6.87499 18.9583C5.95833 18.9583 5.20833 18.2083 5.20833 17.2917C5.20833 16.375 5.95833 15.625 6.87499 15.625C7.79166 15.625 8.54166 16.375 8.54166 17.2917C8.54166 18.2083 7.79166 18.9583 6.87499 18.9583ZM6.87499 16.875C6.64166 16.875 6.45833 17.0583 6.45833 17.2917C6.45833 17.525 6.64166 17.7083 6.87499 17.7083C7.10833 17.7083 7.29166 17.525 7.29166 17.2917C7.29166 17.0583 7.10833 16.875 6.87499 16.875Z" fill="#148A09"/>
<path d="M17.5 7.29166H7.5C7.15833 7.29166 6.875 7.00833 6.875 6.66666C6.875 6.325 7.15833 6.04166 7.5 6.04166H17.5C17.8417 6.04166 18.125 6.325 18.125 6.66666C18.125 7.00833 17.8417 7.29166 17.5 7.29166Z" fill="#148A09"/>
</svg>
