<svg width="20" height="20" viewBox="0 0 20 20" fill="none" xmlns="http://www.w3.org/2000/svg">
<path d="M13.65 18.9583H2.69994C1.90827 18.9583 1.17495 18.5917 0.699946 17.95C0.216612 17.3 0.0749528 16.4833 0.316619 15.7083L3.82495 4.43329C4.14161 3.38329 5.10829 2.66663 6.20829 2.66663H16.4583C17.4666 2.66663 18.375 3.2667 18.7583 4.20003C18.9666 4.68337 19.0083 5.23338 18.8833 5.77504L16.075 17.05C15.8083 18.175 14.8083 18.9583 13.65 18.9583ZM6.21661 3.92497C5.67494 3.92497 5.18328 4.28335 5.02495 4.80835L1.51662 16.0834C1.39995 16.475 1.46661 16.8834 1.71661 17.2167C1.94995 17.5334 2.31662 17.7167 2.70828 17.7167H13.6583C14.2333 17.7167 14.7333 17.325 14.8666 16.7667L17.6749 5.4833C17.7416 5.2083 17.725 4.93334 17.6166 4.69167C17.4166 4.21667 16.975 3.91663 16.4666 3.91663H6.21661V3.92497Z" fill="#148A09"/>
<path d="M17.3167 18.9583H13.3333C12.9917 18.9583 12.7083 18.675 12.7083 18.3333C12.7083 17.9916 12.9917 17.7083 13.3333 17.7083H17.3167C17.6583 17.7083 17.975 17.5667 18.2083 17.3167C18.4417 17.0667 18.5583 16.7333 18.5333 16.3917L17.7083 5.04168C17.6833 4.70001 17.9417 4.39997 18.2833 4.37497C18.625 4.3583 18.925 4.60825 18.95 4.94992L19.775 16.3C19.825 16.9834 19.5833 17.6667 19.1167 18.1667C18.6583 18.675 18 18.9583 17.3167 18.9583Z" fill="#148A09"/>
<path d="M8.06647 5.94163C8.01647 5.94163 7.96648 5.93328 7.91648 5.92495C7.58315 5.84161 7.37482 5.50825 7.45816 5.16658L8.32481 1.56663C8.40814 1.2333 8.74147 1.02492 9.08314 1.10825C9.41647 1.19159 9.62482 1.52495 9.54149 1.86662L8.67482 5.46667C8.60815 5.75001 8.34981 5.94163 8.06647 5.94163Z" fill="#148A09"/>
<path d="M13.65 5.94999C13.6083 5.94999 13.5583 5.94998 13.5166 5.93331C13.1833 5.85831 12.9666 5.52496 13.0333 5.19163L13.8166 1.57499C13.8916 1.23333 14.2249 1.02503 14.5583 1.0917C14.8916 1.15836 15.1083 1.49994 15.0416 1.83327L14.2583 5.45001C14.1999 5.75001 13.9416 5.94999 13.65 5.94999Z" fill="#148A09"/>
<path d="M13.0835 10.625H6.41683C6.07517 10.625 5.79183 10.3417 5.79183 10C5.79183 9.65833 6.07517 9.375 6.41683 9.375H13.0835C13.4252 9.375 13.7085 9.65833 13.7085 10C13.7085 10.3417 13.4252 10.625 13.0835 10.625Z" fill="#148A09"/>
<path d="M12.2502 13.9583H5.5835C5.24183 13.9583 4.9585 13.675 4.9585 13.3333C4.9585 12.9917 5.24183 12.7083 5.5835 12.7083H12.2502C12.5918 12.7083 12.8752 12.9917 12.8752 13.3333C12.8752 13.675 12.5918 13.9583 12.2502 13.9583Z" fill="#148A09"/>
</svg>
