<svg width="22" height="22" viewBox="0 0 22 22" fill="none" xmlns="http://www.w3.org/2000/svg">
<path d="M19.2501 6.16919C19.2318 6.16919 19.2043 6.16919 19.1768 6.16919C14.3276 5.68335 9.48761 5.50002 4.69344 5.98585L2.82344 6.16919C2.43844 6.20585 2.09927 5.93085 2.06261 5.54585C2.02594 5.16085 2.30094 4.83085 2.67677 4.79419L4.54677 4.61085C9.42344 4.11585 14.3643 4.30835 19.3143 4.79419C19.6901 4.83085 19.9651 5.17002 19.9284 5.54585C19.9009 5.90335 19.5984 6.16919 19.2501 6.16919Z" fill="#E11414"/>
<path d="M7.7917 5.24331C7.75503 5.24331 7.71836 5.24331 7.67253 5.23415C7.30586 5.16998 7.0492 4.81248 7.11336 4.44581L7.31503 3.24498C7.4617 2.36498 7.66336 1.14581 9.7992 1.14581H12.2009C14.3459 1.14581 14.5475 2.41081 14.685 3.25415L14.8867 4.44581C14.9509 4.82165 14.6942 5.17915 14.3275 5.23415C13.9517 5.29831 13.5942 5.04165 13.5392 4.67498L13.3375 3.48331C13.2092 2.68581 13.1817 2.52998 12.21 2.52998H9.80836C8.8367 2.52998 8.81836 2.65831 8.68086 3.47415L8.47003 4.66581C8.41503 5.00498 8.1217 5.24331 7.7917 5.24331Z" fill="#E11414"/>
<path d="M13.9424 20.8542H8.05745C4.85828 20.8542 4.72995 19.085 4.62911 17.655L4.03328 8.42417C4.00578 8.04834 4.29911 7.71834 4.67495 7.69084C5.05995 7.67251 5.38078 7.95667 5.40828 8.33251L6.00411 17.5633C6.10495 18.9567 6.14161 19.4792 8.05745 19.4792H13.9424C15.8674 19.4792 15.9041 18.9567 15.9958 17.5633L16.5916 8.33251C16.6191 7.95667 16.9491 7.67251 17.3249 7.69084C17.7008 7.71834 17.9941 8.03917 17.9666 8.42417L17.3708 17.655C17.2699 19.085 17.1416 20.8542 13.9424 20.8542Z" fill="#E11414"/>
<path d="M12.5217 15.8125H9.46924C9.0934 15.8125 8.78174 15.5008 8.78174 15.125C8.78174 14.7492 9.0934 14.4375 9.46924 14.4375H12.5217C12.8976 14.4375 13.2092 14.7492 13.2092 15.125C13.2092 15.5008 12.8976 15.8125 12.5217 15.8125Z" fill="#E11414"/>
<path d="M13.2916 12.1458H8.70825C8.33242 12.1458 8.02075 11.8341 8.02075 11.4583C8.02075 11.0825 8.33242 10.7708 8.70825 10.7708H13.2916C13.6674 10.7708 13.9791 11.0825 13.9791 11.4583C13.9791 11.8341 13.6674 12.1458 13.2916 12.1458Z" fill="#E11414"/>
</svg>
