<svg width="22" height="22" viewBox="0 0 22 22" fill="none" xmlns="http://www.w3.org/2000/svg">
<path d="M13.7502 20.8541H8.25016C3.27266 20.8541 1.146 18.7275 1.146 13.75V8.24998C1.146 3.27248 3.27266 1.14581 8.25016 1.14581H10.0835C10.4593 1.14581 10.771 1.45748 10.771 1.83331C10.771 2.20915 10.4593 2.52081 10.0835 2.52081H8.25016C4.02433 2.52081 2.521 4.02415 2.521 8.24998V13.75C2.521 17.9758 4.02433 19.4791 8.25016 19.4791H13.7502C17.976 19.4791 19.4793 17.9758 19.4793 13.75V11.9166C19.4793 11.5408 19.791 11.2291 20.1668 11.2291C20.5427 11.2291 20.8543 11.5408 20.8543 11.9166V13.75C20.8543 18.7275 18.7277 20.8541 13.7502 20.8541Z" fill="#148A09"/>
<path d="M7.79172 16.2158C7.23255 16.2158 6.71922 16.0142 6.34339 15.6475C5.89422 15.1983 5.70172 14.5475 5.80255 13.86L6.19672 11.1008C6.27005 10.5692 6.61839 9.88166 6.99422 9.50583L14.2176 2.28249C16.0417 0.458326 17.8934 0.458326 19.7176 2.28249C20.7167 3.28166 21.1659 4.29916 21.0742 5.31666C20.9917 6.14166 20.5517 6.94833 19.7176 7.77333L12.4942 14.9967C12.1184 15.3725 11.4309 15.7208 10.8992 15.7942L8.14005 16.1883C8.02089 16.2158 7.90172 16.2158 7.79172 16.2158ZM15.1892 3.25416L7.96589 10.4775C7.79172 10.6517 7.59005 11.055 7.55339 11.2933L7.15922 14.0525C7.12255 14.3183 7.17755 14.5383 7.31505 14.6758C7.45255 14.8133 7.67255 14.8683 7.93839 14.8317L10.6976 14.4375C10.9359 14.4008 11.3484 14.1992 11.5134 14.025L18.7367 6.80166C19.3326 6.20583 19.6442 5.67416 19.6901 5.17916C19.7451 4.58333 19.4334 3.95083 18.7367 3.24499C17.2701 1.77833 16.2617 2.19083 15.1892 3.25416Z" fill="#148A09"/>
<path d="M18.1959 9.01082C18.1318 9.01082 18.0676 9.00165 18.0126 8.98332C15.6018 8.30498 13.6859 6.38915 13.0076 3.97832C12.9068 3.61165 13.1176 3.23582 13.4843 3.12582C13.8509 3.02498 14.2268 3.23582 14.3276 3.60248C14.8776 5.55498 16.4268 7.10415 18.3793 7.65415C18.7459 7.75498 18.9568 8.13998 18.8559 8.50665C18.7734 8.81832 18.4984 9.01082 18.1959 9.01082Z" fill="#148A09"/>
</svg>
