<svg width="22" height="22" viewBox="0 0 22 22" fill="none" xmlns="http://www.w3.org/2000/svg">
<g clip-path="url(#clip0_339_1782)">
<path d="M11 22C17.0751 22 22 17.0751 22 11C22 4.92487 17.0751 0 11 0C4.92487 0 0 4.92487 0 11C0 17.0751 4.92487 22 11 22Z" fill="#D80027"/>
<path d="M16.3797 11L14.1817 12.0339L15.3522 14.1629L12.9651 13.7062L12.6628 16.1174L11.0001 14.3441L9.33757 16.1174L9.03512 13.7062L6.64829 14.1628L7.81876 12.0338L5.62061 11L7.81876 9.96613L6.64829 7.83712L9.03503 8.29388L9.33766 5.8826L11.0001 7.65596L12.6629 5.8826L12.9651 8.29388L15.3523 7.83712L14.1817 9.96626L16.3797 11Z" fill="#FFDA44"/>
<path d="M11.0002 14.3478C12.8491 14.3478 14.348 12.8489 14.348 11C14.348 9.15103 12.8491 7.65216 11.0002 7.65216C9.15122 7.65216 7.65234 9.15103 7.65234 11C7.65234 12.8489 9.15122 14.3478 11.0002 14.3478Z" fill="#D80027"/>
<path d="M9.32627 11C9.24561 11 9.16599 11.0041 9.0874 11.0119C9.09028 11.4756 9.25803 11.9 9.53509 12.2297C9.68291 11.832 9.90359 11.4693 10.1819 11.1589C9.9161 11.0566 9.62773 11 9.32627 11Z" fill="#FFDA44"/>
<path d="M10.3569 12.8018C10.558 12.8736 10.7745 12.913 11.0004 12.913C11.2262 12.913 11.4428 12.8736 11.6438 12.8018C11.5342 12.3716 11.3079 11.9875 11.0004 11.6857C10.6929 11.9875 10.4665 12.3716 10.3569 12.8018Z" fill="#FFDA44"/>
<path d="M12.6571 10.0438C12.3263 9.47203 11.7085 9.08694 11.0004 9.08694C10.2923 9.08694 9.67452 9.47199 9.34375 10.0438C9.94677 10.0468 10.5122 10.2108 11.0004 10.4939C11.4886 10.2108 12.054 10.0468 12.6571 10.0438Z" fill="#FFDA44"/>
<path d="M11.8184 11.1589C12.0967 11.4692 12.3174 11.8319 12.4652 12.2298C12.7422 11.9001 12.91 11.4757 12.9129 11.012C12.8342 11.0041 12.7546 11 12.674 11C12.3726 11 12.0842 11.0566 11.8184 11.1589Z" fill="#FFDA44"/>
</g>
<defs>
<clipPath id="clip0_339_1782">
<rect width="22" height="22" fill="white"/>
</clipPath>
</defs>
</svg>
