<svg width="22" height="22" viewBox="0 0 22 22" fill="none" xmlns="http://www.w3.org/2000/svg">
<path d="M16.1519 8.81833H11.3394C10.9635 8.81833 10.6519 8.50666 10.6519 8.13083C10.6519 7.755 10.9635 7.44333 11.3394 7.44333H16.1519C16.5277 7.44333 16.8394 7.755 16.8394 8.13083C16.8394 8.50666 16.5369 8.81833 16.1519 8.81833Z" fill="#148A09"/>
<path d="M6.52652 9.51501C6.35235 9.51501 6.17818 9.45085 6.04068 9.31335L5.35318 8.62585C5.08735 8.36001 5.08735 7.92001 5.35318 7.65418C5.61902 7.38835 6.05902 7.38835 6.32485 7.65418L6.52652 7.85585L8.10318 6.27918C8.36902 6.01335 8.80902 6.01335 9.07485 6.27918C9.34068 6.54501 9.34068 6.98501 9.07485 7.25085L7.01235 9.31335C6.88402 9.44168 6.70985 9.51501 6.52652 9.51501Z" fill="#148A09"/>
<path d="M16.1519 15.235H11.3394C10.9635 15.235 10.6519 14.9233 10.6519 14.5475C10.6519 14.1717 10.9635 13.86 11.3394 13.86H16.1519C16.5277 13.86 16.8394 14.1717 16.8394 14.5475C16.8394 14.9233 16.5369 15.235 16.1519 15.235Z" fill="#148A09"/>
<path d="M6.52652 15.9317C6.35235 15.9317 6.17818 15.8675 6.04068 15.73L5.35318 15.0425C5.08735 14.7767 5.08735 14.3367 5.35318 14.0708C5.61902 13.805 6.05902 13.805 6.32485 14.0708L6.52652 14.2725L8.10318 12.6958C8.36902 12.43 8.80902 12.43 9.07485 12.6958C9.34068 12.9617 9.34068 13.4017 9.07485 13.6675L7.01235 15.73C6.88402 15.8583 6.70985 15.9317 6.52652 15.9317Z" fill="#148A09"/>
<path d="M13.7502 20.8542H8.25016C3.27266 20.8542 1.146 18.7275 1.146 13.75V8.25001C1.146 3.27251 3.27266 1.14584 8.25016 1.14584H13.7502C18.7277 1.14584 20.8543 3.27251 20.8543 8.25001V13.75C20.8543 18.7275 18.7277 20.8542 13.7502 20.8542ZM8.25016 2.52084C4.02433 2.52084 2.521 4.02418 2.521 8.25001V13.75C2.521 17.9758 4.02433 19.4792 8.25016 19.4792H13.7502C17.976 19.4792 19.4793 17.9758 19.4793 13.75V8.25001C19.4793 4.02418 17.976 2.52084 13.7502 2.52084H8.25016Z" fill="#148A09"/>
</svg>
