<svg width="20" height="20" viewBox="0 0 20 20" fill="none" xmlns="http://www.w3.org/2000/svg">
<path d="M10.1 11.275C10.0833 11.275 10.0583 11.275 10.0417 11.275C10.0167 11.275 9.98333 11.275 9.95833 11.275C8.06666 11.2167 6.64999 9.74167 6.64999 7.925C6.64999 6.075 8.15833 4.56667 10.0083 4.56667C11.8583 4.56667 13.3667 6.075 13.3667 7.925C13.3583 9.75 11.9333 11.2167 10.125 11.275C10.1083 11.275 10.1083 11.275 10.1 11.275ZM9.99999 5.80833C8.83333 5.80833 7.89166 6.75833 7.89166 7.91667C7.89166 9.05833 8.78333 9.98333 9.91666 10.025C9.94166 10.0167 10.025 10.0167 10.1083 10.025C11.225 9.96667 12.1 9.05 12.1083 7.91667C12.1083 6.75833 11.1667 5.80833 9.99999 5.80833Z" fill="#148A09"/>
<path d="M10 18.9583C7.75833 18.9583 5.61666 18.125 3.95833 16.6083C3.80833 16.475 3.74166 16.275 3.75833 16.0833C3.86666 15.0917 4.48333 14.1667 5.50833 13.4833C7.99166 11.8333 12.0167 11.8333 14.4917 13.4833C15.5167 14.175 16.1333 15.0917 16.2417 16.0833C16.2667 16.2833 16.1917 16.475 16.0417 16.6083C14.3833 18.125 12.2417 18.9583 10 18.9583ZM5.06666 15.9167C6.45 17.075 8.19166 17.7083 10 17.7083C11.8083 17.7083 13.55 17.075 14.9333 15.9167C14.7833 15.4083 14.3833 14.9167 13.7917 14.5167C11.7417 13.15 8.26666 13.15 6.2 14.5167C5.60833 14.9167 5.21666 15.4083 5.06666 15.9167Z" fill="#148A09"/>
<path d="M9.99999 18.9583C5.05832 18.9583 1.04166 14.9417 1.04166 10C1.04166 5.05833 5.05832 1.04166 9.99999 1.04166C14.9417 1.04166 18.9583 5.05833 18.9583 10C18.9583 14.9417 14.9417 18.9583 9.99999 18.9583ZM9.99999 2.29166C5.74999 2.29166 2.29166 5.75 2.29166 10C2.29166 14.25 5.74999 17.7083 9.99999 17.7083C14.25 17.7083 17.7083 14.25 17.7083 10C17.7083 5.75 14.25 2.29166 9.99999 2.29166Z" fill="#148A09"/>
</svg>
