<svg width="22" height="22" viewBox="0 0 22 22" fill="none" xmlns="http://www.w3.org/2000/svg">
<path d="M15.996 20.8541C14.9602 20.8541 13.8693 20.6066 12.7418 20.13C11.6418 19.6625 10.5327 19.0208 9.451 18.2416C8.3785 17.4533 7.34266 16.5733 6.36183 15.6108C5.39016 14.63 4.51016 13.5941 3.731 12.5308C2.94266 11.4308 2.31016 10.3308 1.861 9.26748C1.38433 8.13081 1.146 7.03081 1.146 5.99498C1.146 5.27998 1.27433 4.60165 1.52183 3.96915C1.7785 3.31831 2.191 2.71331 2.75016 2.19081C3.456 1.49415 4.26266 1.14581 5.12433 1.14581C5.48183 1.14581 5.8485 1.22831 6.16016 1.37498C6.51766 1.53998 6.82016 1.78748 7.04016 2.11748L9.16683 5.11498C9.35933 5.38081 9.506 5.63748 9.60683 5.89415C9.726 6.16915 9.79016 6.44415 9.79016 6.70998C9.79016 7.05831 9.68933 7.39748 9.49683 7.71831C9.35933 7.96581 9.1485 8.23165 8.88266 8.49748L8.25933 9.14831C8.2685 9.17581 8.27766 9.19415 8.28683 9.21248C8.39683 9.40498 8.61683 9.73498 9.0385 10.23C9.48766 10.7433 9.90933 11.2108 10.331 11.6416C10.8718 12.1733 11.321 12.595 11.7427 12.9433C12.2652 13.3833 12.6043 13.6033 12.806 13.7041L12.7877 13.75L13.4568 13.09C13.741 12.8058 14.016 12.595 14.2818 12.4575C14.786 12.1458 15.4277 12.0908 16.0693 12.3566C16.3077 12.4575 16.5643 12.595 16.8393 12.7875L19.8827 14.9508C20.2218 15.18 20.4693 15.4733 20.616 15.8216C20.7535 16.17 20.8177 16.4908 20.8177 16.8116C20.8177 17.2516 20.7168 17.6916 20.5243 18.1041C20.3318 18.5166 20.0935 18.8741 19.791 19.2041C19.2685 19.7816 18.7002 20.1941 18.0402 20.46C17.4077 20.7166 16.7202 20.8541 15.996 20.8541ZM5.12433 2.52081C4.62016 2.52081 4.15266 2.74081 3.7035 3.18081C3.28183 3.57498 2.9885 4.00581 2.80516 4.47331C2.61266 4.94998 2.521 5.45415 2.521 5.99498C2.521 6.84748 2.72266 7.77331 3.126 8.72665C3.5385 9.69831 4.116 10.7066 4.84933 11.715C5.58266 12.7233 6.41683 13.7041 7.3335 14.63C8.25016 15.5375 9.24016 16.3808 10.2577 17.1233C11.2477 17.8475 12.2652 18.4341 13.2735 18.8558C14.841 19.525 16.3077 19.6808 17.5177 19.1766C17.9852 18.9841 18.3977 18.6908 18.7735 18.2691C18.9843 18.04 19.1493 17.7925 19.2868 17.4991C19.3968 17.27 19.4518 17.0316 19.4518 16.7933C19.4518 16.6466 19.4243 16.5 19.351 16.335C19.3235 16.28 19.2685 16.1791 19.0943 16.06L16.051 13.8966C15.8677 13.7683 15.7027 13.6766 15.5468 13.6125C15.3452 13.53 15.2627 13.4475 14.951 13.64C14.7677 13.7316 14.6027 13.8691 14.4193 14.0525L13.7227 14.74C13.3652 15.0883 12.8152 15.1708 12.3935 15.015L12.146 14.905C11.7702 14.7033 11.3302 14.3916 10.8443 13.9791C10.4043 13.6033 9.92766 13.1633 9.35016 12.595C8.901 12.1366 8.45183 11.6508 7.98433 11.11C7.5535 10.6058 7.24183 10.175 7.04933 9.81748L6.93933 9.54248C6.88433 9.33165 6.866 9.21248 6.866 9.08415C6.866 8.75415 6.98516 8.46081 7.21433 8.23165L7.90183 7.51665C8.08516 7.33331 8.22266 7.15915 8.31433 7.00331C8.38766 6.88415 8.41516 6.78331 8.41516 6.69165C8.41516 6.61831 8.38766 6.50831 8.34183 6.39831C8.27766 6.25165 8.17683 6.08665 8.0485 5.91248L5.92183 2.90581C5.83016 2.77748 5.72016 2.68581 5.58266 2.62165C5.436 2.55748 5.28016 2.52081 5.12433 2.52081ZM12.7877 13.7591L12.641 14.3825L12.8885 13.7408C12.8427 13.7316 12.806 13.7408 12.7877 13.7591Z" fill="#148A09"/>
<path d="M16.9583 8.93749C16.5825 8.93749 16.2708 8.62582 16.2708 8.24999C16.2708 7.91999 15.9408 7.23249 15.3908 6.64582C14.85 6.06832 14.2542 5.72916 13.75 5.72916C13.3742 5.72916 13.0625 5.41749 13.0625 5.04166C13.0625 4.66582 13.3742 4.35416 13.75 4.35416C14.6392 4.35416 15.5742 4.83082 16.39 5.70166C17.1508 6.51749 17.6458 7.51666 17.6458 8.24999C17.6458 8.62582 17.3342 8.93749 16.9583 8.93749Z" fill="#148A09"/>
<path d="M20.1667 8.93748C19.7908 8.93748 19.4792 8.62581 19.4792 8.24998C19.4792 5.08748 16.9125 2.52081 13.75 2.52081C13.3742 2.52081 13.0625 2.20915 13.0625 1.83331C13.0625 1.45748 13.3742 1.14581 13.75 1.14581C17.6642 1.14581 20.8542 4.33581 20.8542 8.24998C20.8542 8.62581 20.5425 8.93748 20.1667 8.93748Z" fill="#148A09"/>
</svg>
