<svg width="32" height="32" viewBox="0 0 32 32" fill="none" xmlns="http://www.w3.org/2000/svg">
<path d="M17.333 19.6667H15.9996C15.453 19.6667 14.9996 19.2133 14.9996 18.6667C14.9996 18.12 15.453 17.6667 15.9996 17.6667H17.333C18.253 17.6667 18.9996 16.92 18.9996 16V3.66666H7.99962C6.42629 3.66666 4.98625 4.51997 4.21292 5.89331C3.94625 6.37331 3.33297 6.54669 2.85297 6.28003C2.37297 6.01336 2.19959 5.4 2.46626 4.92C3.58626 2.92 5.70629 1.66666 7.99962 1.66666H19.9996C20.5463 1.66666 20.9996 2.12 20.9996 2.66666V16C20.9996 18.0267 19.3596 19.6667 17.333 19.6667Z" fill="#148A09"/>
<path d="M25.3334 27.6667H24.0001C23.4534 27.6667 23.0001 27.2133 23.0001 26.6667C23.0001 25.7467 22.2534 25 21.3334 25C20.4134 25 19.6667 25.7467 19.6667 26.6667C19.6667 27.2133 19.2134 27.6667 18.6667 27.6667H13.3334C12.7867 27.6667 12.3334 27.2133 12.3334 26.6667C12.3334 25.7467 11.5867 25 10.6667 25C9.74675 25 9.00008 25.7467 9.00008 26.6667C9.00008 27.2133 8.54675 27.6667 8.00008 27.6667H6.66675C3.90675 27.6667 1.66675 25.4267 1.66675 22.6667C1.66675 22.12 2.12008 21.6667 2.66675 21.6667C3.21341 21.6667 3.66675 22.12 3.66675 22.6667C3.66675 24.32 5.01341 25.6667 6.66675 25.6667H7.13338C7.57338 24.1333 8.98675 23 10.6667 23C12.3467 23 13.7601 24.1333 14.2001 25.6667H17.8134C18.2534 24.1333 19.6668 23 21.3468 23C23.0268 23 24.44 24.1333 24.88 25.6667H25.3334C26.9867 25.6667 28.3334 24.32 28.3334 22.6667V19.6667H25.3334C24.0534 19.6667 23.0001 18.6133 23.0001 17.3333V13.3333C23.0001 12.0533 24.0401 11 25.3334 11L23.9067 8.50667C23.6134 7.98667 23.0535 7.66666 22.4535 7.66666H21.0001V16C21.0001 18.0267 19.3601 19.6667 17.3334 19.6667H16.0001C15.4534 19.6667 15.0001 19.2133 15.0001 18.6667C15.0001 18.12 15.4534 17.6667 16.0001 17.6667H17.3334C18.2534 17.6667 19.0001 16.92 19.0001 16V6.66666C19.0001 6.12 19.4534 5.66666 20.0001 5.66666H22.4535C23.7735 5.66666 24.9867 6.37335 25.6401 7.52002L27.9201 11.5067C28.0934 11.8133 28.0934 12.2 27.9201 12.5067C27.7468 12.8133 27.4134 13 27.0534 13H25.3334C25.1467 13 25.0001 13.1467 25.0001 13.3333V17.3333C25.0001 17.52 25.1467 17.6667 25.3334 17.6667H29.3334C29.8801 17.6667 30.3334 18.12 30.3334 18.6667V22.6667C30.3334 25.4267 28.0934 27.6667 25.3334 27.6667Z" fill="#148A09"/>
<path d="M10.6667 30.3333C8.64 30.3333 7 28.6933 7 26.6667C7 24.64 8.64 23 10.6667 23C12.6933 23 14.3333 24.64 14.3333 26.6667C14.3333 28.6933 12.6933 30.3333 10.6667 30.3333ZM10.6667 25C9.74667 25 9 25.7467 9 26.6667C9 27.5867 9.74667 28.3333 10.6667 28.3333C11.5867 28.3333 12.3333 27.5867 12.3333 26.6667C12.3333 25.7467 11.5867 25 10.6667 25Z" fill="#148A09"/>
<path d="M21.3334 30.3333C19.3067 30.3333 17.6667 28.6933 17.6667 26.6667C17.6667 24.64 19.3067 23 21.3334 23C23.3601 23 25.0001 24.64 25.0001 26.6667C25.0001 28.6933 23.3601 30.3333 21.3334 30.3333ZM21.3334 25C20.4134 25 19.6667 25.7467 19.6667 26.6667C19.6667 27.5867 20.4134 28.3333 21.3334 28.3333C22.2534 28.3333 23.0001 27.5867 23.0001 26.6667C23.0001 25.7467 22.2534 25 21.3334 25Z" fill="#148A09"/>
<path d="M29.3333 19.6667H25.3333C24.0533 19.6667 23 18.6133 23 17.3333V13.3333C23 12.0533 24.0533 11 25.3333 11H27.0533C27.4133 11 27.7467 11.1867 27.92 11.5067L30.2 15.5067C30.28 15.6533 30.3333 15.8267 30.3333 16V18.6667C30.3333 19.2133 29.88 19.6667 29.3333 19.6667ZM25.3333 13C25.1467 13 25 13.1467 25 13.3333V17.3333C25 17.52 25.1467 17.6667 25.3333 17.6667H28.3333V16.2667L26.4666 13H25.3333Z" fill="#148A09"/>
<path d="M10.6667 11.6667H2.66675C2.12008 11.6667 1.66675 11.2133 1.66675 10.6667C1.66675 10.12 2.12008 9.66666 2.66675 9.66666H10.6667C11.2134 9.66666 11.6667 10.12 11.6667 10.6667C11.6667 11.2133 11.2134 11.6667 10.6667 11.6667Z" fill="#148A09"/>
<path d="M8.00008 15.6667H2.66675C2.12008 15.6667 1.66675 15.2133 1.66675 14.6667C1.66675 14.12 2.12008 13.6667 2.66675 13.6667H8.00008C8.54675 13.6667 9.00008 14.12 9.00008 14.6667C9.00008 15.2133 8.54675 15.6667 8.00008 15.6667Z" fill="#148A09"/>
<path d="M5.33341 19.6667H2.66675C2.12008 19.6667 1.66675 19.2133 1.66675 18.6667C1.66675 18.12 2.12008 17.6667 2.66675 17.6667H5.33341C5.88008 17.6667 6.33342 18.12 6.33342 18.6667C6.33342 19.2133 5.88008 19.6667 5.33341 19.6667Z" fill="#148A09"/>
</svg>
